<?xml version="1.0" encoding="utf-8"?>
<!-- Generator: Adobe Illustrator 26.1.0, SVG Export Plug-In . SVG Version: 6.00 Build 0)  -->
<svg version="1.1" id="Layer_1" xmlns="http://www.w3.org/2000/svg" xmlns:xlink="http://www.w3.org/1999/xlink" x="0px" y="0px"
	 viewBox="0 0 336 521" style="enable-background:new 0 0 336 521;" xml:space="preserve">
<style type="text/css">
	.st0{fill:#7A4F14;}
	.st1{opacity:0.5;}
	.st2{fill:#BBBBBF;}
	.st3{fill:none;stroke:#263238;stroke-linecap:round;stroke-linejoin:round;}
	.st4{fill:#EBA417;stroke:#263238;stroke-linecap:round;stroke-linejoin:round;}
	.st5{fill-rule:evenodd;clip-rule:evenodd;fill:#BC8312;}
	.st6{fill:none;stroke:#263238;stroke-width:0.5;stroke-linecap:round;stroke-linejoin:round;}
	.st7{fill:#9E6E39;stroke:#263238;stroke-linecap:round;stroke-linejoin:round;}
	.st8{fill:#E1E1E6;stroke:#263238;stroke-linecap:round;stroke-linejoin:round;}
	.st9{fill:#845F3B;stroke:#9E6E39;stroke-linecap:round;stroke-linejoin:round;}
	.st10{fill:#9E6E39;stroke:#A0BB9E;stroke-miterlimit:10;}
	.st11{fill:#61DCFB;stroke:#263238;stroke-linecap:round;stroke-linejoin:round;}
	.st12{fill:#263238;stroke:#263238;stroke-linecap:round;stroke-linejoin:round;}
	.st13{fill:none;stroke:#49606B;stroke-width:0.5;stroke-linecap:round;stroke-linejoin:round;}
	.st14{fill:#5E5E61;stroke:#263238;stroke-linecap:round;stroke-linejoin:round;}
	.st15{fill:#A8A8A8;}
	.st16{fill:#161E22;stroke:#263238;stroke-linecap:round;stroke-linejoin:round;}
	.st17{fill:none;stroke:#6C7D85;stroke-linecap:round;stroke-linejoin:round;}
	.st18{fill-rule:evenodd;clip-rule:evenodd;fill:#61DCFB;}
	.st19{fill:#66A642;}
	.st20{fill-rule:evenodd;clip-rule:evenodd;fill:#845F3B;}
	.st21{fill-rule:evenodd;clip-rule:evenodd;fill:#724F2B;}
	.st22{fill-rule:evenodd;clip-rule:evenodd;fill:#3E2D1E;}
	.st23{fill-rule:evenodd;clip-rule:evenodd;fill:#5E3E1A;}
	.st24{fill-rule:evenodd;clip-rule:evenodd;fill:#10090D;}
	.st25{fill-rule:evenodd;clip-rule:evenodd;fill:#5B1A14;}
	.st26{fill-rule:evenodd;clip-rule:evenodd;fill:#FFFFFF;}
	.st27{fill-rule:evenodd;clip-rule:evenodd;fill:#A67E69;}
	.st28{fill-rule:evenodd;clip-rule:evenodd;fill:#555658;}
</style>
<path class="st0" d="M222.6,184c0,0,18.8,40.1,18.8,42.2s-16.7,11.2-19.8,13.1c-2.5,1.4-5,2.7-7.6,3.8l1.9,18.6
	c0,0,28.7-6.5,40.7-13.1c12-6.5,11.6-13.9,8.8-24.9c-2.8-11-21.3-53.4-21.3-53.4L222.6,184z"/>
<g class="st1">
	<path class="st2" d="M256.5,248.6c12-6.5,11.6-13.9,8.8-24.9c-2.8-11-21.3-53.4-21.3-53.4l-3,1.9l-1,1.8c0,0,17.3,42.5,18.3,56.6
		c0.7,9.5-18.4,21.4-31.1,28.1C236.7,256.3,249.5,252.4,256.5,248.6z"/>
</g>
<path class="st3" d="M222.6,184c0,0,18.8,40.1,18.8,42.2s-16.7,11.2-19.8,13.1c-2.5,1.4-5,2.7-7.6,3.8l1.9,18.6
	c0,0,28.7-6.5,40.7-13.1c12-6.5,11.6-13.9,8.8-24.9c-2.8-11-21.3-53.4-21.3-53.4L222.6,184z"/>
<path class="st0" d="M87.1,175.2c0,0-13.7,50.2-14.1,59.1c-0.4,8.9,27.2,26.4,28.2,27.4c1,1.1-1.6-30.5-1.6-30.5l9.4-45.8
	L87.1,175.2z"/>
<g class="st1">
	<path class="st2" d="M93.4,179.3l-0.3-1.4l-6-2.8c0,0-13.7,50.2-14.1,59.1c-0.4,8.9,27.2,26.4,28.2,27.4c0.4,0.4,0.2-4.3-0.1-10.1
		c-8.2-7-20-16.8-21.4-20.9"/>
</g>
<path class="st3" d="M87.1,175.2c0,0-13.7,50.2-14.1,59.1c-0.4,8.9,27.2,26.4,28.2,27.4c1,1.1-1.6-30.5-1.6-30.5l9.4-45.8
	L87.1,175.2z"/>
<path class="st4" d="M151.5,124.8c0,0-5.3,3.8-15.6,4.2c-10.3,0.4-10.8-7.1-23.6-7.1c-15.5,0-35,49.1-35,49.1s9.7,9.5,19.2,13.5
	c5.3,2.3,10.8,3.9,16.5,4.8l1.5,32.3H219l1.3-32.3l32.7-21.2c0,0-16-28.7-23.8-39.4c-7.8-10.8-20.9-6.8-24.9-4
	c-4,2.7-15.9,3.4-20.2,2.8c-5.7-1.3-11.3-2.8-16.9-4.6C167.1,122.9,160.3,117.3,151.5,124.8z"/>
<path class="st5" d="M113.5,189.5l1-53.5L102,186.3L113.5,189.5z"/>
<path class="st5" d="M206.2,221.9V159c0-15.9-13.5-20.9-31.5-27.5c-6.3-2.3-13.1-4.8-20-8l-0.7-0.1c7.8-5.1,13.5-0.3,13.5-0.3
	c5.6,1.8,11.2,3.4,16.9,4.6c4.4,0.6,16.2,0,20.2-2.8s17.1-6.7,24.9,4c7.8,10.8,23.8,39.4,23.8,39.4l-32.7,21.2l-1.3,32.3H206.2z"/>
<path class="st6" d="M113.9,136.2l-0.4,53.6"/>
<path class="st6" d="M117.7,141c0,0,1.5,26.1,7.1,40.7"/>
<path class="st6" d="M125.7,183.8c1.2,3.6,2.7,7,4.4,10.3"/>
<path class="st6" d="M121.1,138.1c2,9.5,4.8,18.8,8.4,27.8"/>
<path class="st6" d="M212,142.7c0,0-5.1,20.7-9.5,30"/>
<path class="st6" d="M220.2,189.5l-0.2-41.8"/>
<path class="st6" d="M217.9,148.6c0,0-3.8,26.4-13.1,40.3"/>
<path class="st6" d="M213.3,183.6c0,0-4.2,8-7.2,12.2"/>
<path class="st6" d="M145.5,127.9c0,0,3,18.1,7.2,27.4c4.2,9.3,11.6,11.2,17.9,8.4c6.3-2.7,11-16.3,10.6-33.5"/>
<path class="st7" d="M401.2,42.9c0,0-4-6.9-7.2-3.4c-3.2,3.6,2.5,11.8,5.7,14.5c3.2,2.7,5.5,1.1,5.3-1.9
	C404.8,49.3,401.2,42.9,401.2,42.9z"/>
<path class="st3" d="M401.2,42.9c0,0-4-6.9-7.2-3.4c-3.2,3.6,2.5,11.8,5.7,14.5c3.2,2.7,5.5,1.1,5.3-1.9
	C404.8,49.3,401.2,42.9,401.2,42.9z"/>
<path class="st8" d="M465,42.9c0,0,4-6.9,7.2-3.4c3.2,3.6-2.5,11.8-5.7,14.5c-3.2,2.7-5.5,1.1-5.3-1.9C461.4,49.3,465,42.9,465,42.9
	z"/>
<path class="st7" d="M465,42.9c0,0,4-6.9,7.2-3.4c3.2,3.6-2.5,11.8-5.7,14.5c-3.2,2.7-5.5,1.1-5.3-1.9C461.4,49.3,465,42.9,465,42.9
	z"/>
<path class="st9" d="M148.5,116.5c2,9,4.5,17.9,7.6,26.6c3.8,9.5,11,9.5,13.9,3.4c3-6.1,4.8-28.9,4.8-28.9S155.1,120.3,148.5,116.5z
	"/>
<path class="st10" d="M402.3,45.2c0,0,5.5,19.4,15.9,30.8c10.4,11.4,14.1,14.1,19.6,13.3c5.5-0.8,11.4-8,19.6-22.9
	c8.2-14.9,8.8-26.4,9.5-27.4c0.7-1.1-1.8-22.1-13.5-31.2s-24.9-13.1-36.3-3.2C405.7,14.5,398.5,30.7,402.3,45.2z"/>
<path class="st3" d="M401.6,45.2c0,0,5.5,19.4,15.9,30.8c10.4,11.4,14.1,14.1,19.6,13.3c5.5-0.8,11.4-8,19.6-22.9
	c8.2-14.9,8.8-26.4,9.5-27.4c0.7-1.1-1.8-22.1-13.5-31.2s-24.9-13.1-36.3-3.2C405,14.5,397.8,30.7,401.6,45.2z"/>
<path class="st3" d="M437.1,55.4c-0.7,4.1-1,8.3-1.1,12.4c0.2,4.2,1.5,5.5-0.4,5.9c-1.9,0.4-4-2.5-4-2.5"/>
<path class="st3" d="M416,58.7c1.2,0.9,2.7,1.4,4.2,1.4c1.5,0,3-0.4,4.3-1.2"/>
<path class="st3" d="M442.8,58.7c1.2,0.9,2.7,1.4,4.2,1.4c1.5,0,3-0.4,4.2-1.2"/>
<path class="st3" d="M429.4,51.6c0,0-4-9.9-17.3-5.3"/>
<path class="st3" d="M440.5,50.4c0,0,3.4-9.7,15.4-4"/>
<path class="st3" d="M432,59.5c0,5.4-6.2,9.8-13.9,9.8c-7.7,0-13.9-4.4-13.9-9.8c0-5.4,5.8-7.7,13.5-7.7
	C425.3,51.8,432,54.1,432,59.5z"/>
<path class="st3" d="M464.1,59.5c0,5.4-6.2,9.8-13.9,9.8c-7.7,0-13.9-4.4-13.9-9.8c0-5.4,5.8-7.7,13.5-7.7
	C457.4,51.8,464.1,54.1,464.1,59.5z"/>
<path class="st8" d="M23.9,269.9L23,461.3c0,0.6,0.3,1.2,0.8,1.6s1.2,0.7,1.9,0.7c0.7,0,1.3-0.2,1.8-0.6c0.5-0.4,0.8-1,0.8-1.6
	l6.4-191.2L23.9,269.9z"/>
<path class="st8" d="M10.1,314.3L9.3,512.1c0,0.3,0.1,0.6,0.2,0.9c0.1,0.3,0.3,0.5,0.5,0.7c0.2,0.2,0.5,0.4,0.8,0.5
	c0.3,0.1,0.6,0.2,0.9,0.2c0.6,0,1.2-0.2,1.7-0.6c0.4-0.4,0.7-1,0.7-1.5l5.8-197.6L10.1,314.3z"/>
<path class="st8" d="M312,269.9l0.8,191.4c0,0.3-0.1,0.6-0.2,0.9c-0.1,0.3-0.3,0.5-0.5,0.7c-0.2,0.2-0.5,0.4-0.8,0.5
	c-0.3,0.1-0.6,0.2-0.9,0.2c-0.6,0-1.2-0.2-1.7-0.6c-0.5-0.4-0.7-1-0.7-1.6l-5.8-191.2L312,269.9z"/>
<path class="st8" d="M325.7,314.3l0.8,197.8c0,0.3-0.1,0.6-0.2,0.9c-0.1,0.3-0.3,0.5-0.5,0.7c-0.2,0.2-0.5,0.4-0.8,0.5
	c-0.3,0.1-0.6,0.2-0.9,0.2c-0.6,0-1.2-0.2-1.7-0.6c-0.4-0.4-0.7-1-0.7-1.5L316,314.6L325.7,314.3z"/>
<path class="st8" d="M108.1,322.8l-0.5,174.9c-0.1,0.4,0.1,0.9,0.3,1.2s0.7,0.6,1.1,0.6c0.4-0.1,0.8-0.3,1.1-0.6
	c0.3-0.3,0.4-0.8,0.4-1.2L114,323L108.1,322.8z"/>
<path class="st8" d="M228.8,316.4l0.5,154c0,0.4-0.1,0.7-0.4,1c-0.3,0.3-0.7,0.5-1.1,0.5c-0.4-0.1-0.8-0.3-1.1-0.5
	c-0.3-0.3-0.4-0.7-0.3-1l-3.4-153.9L228.8,316.4z"/>
<path class="st8" d="M106.1,316.4l0.5,154c0,0.4-0.1,0.7-0.4,1c-0.3,0.3-0.7,0.5-1.1,0.5c-0.4-0.1-0.8-0.3-1.1-0.5
	c-0.3-0.3-0.4-0.7-0.3-1l-3.4-153.9L106.1,316.4z"/>
<path class="st8" d="M225.5,322.8l0.6,174.9c0.1,0.4-0.1,0.9-0.4,1.2c-0.3,0.3-0.8,0.6-1.3,0.6c-0.5-0.1-0.9-0.3-1.3-0.6
	s-0.5-0.8-0.4-1.2l-4-174.8L225.5,322.8z"/>
<path class="st8" d="M165.7,336c42.2,0,76.5-7.8,76.5-17.4s-34.2-17.4-76.5-17.4c-42.2,0-76.5,7.8-76.5,17.4S123.5,336,165.7,336z"
	/>
<path class="st8" d="M128.5,466c0,0-4,5.7-1.1,8.5c2.9,2.8,5.7,1.7,5.4,4.6c-0.3,2.9-4.9,12.5-8.9,22.8c-4,10.2,4.3,20.5,12,17.7
	s6.9-31.3,8-36.4c1.1-5.1,2-6,1.7-10.8c-0.3-4.8-0.6-10-4.3-10.5C137.6,461.2,130.2,464,128.5,466z"/>
<path class="st11" d="M140.8,511.7c-5.2-1.9-13.1-1.6-17.5-1.1c1.5,6.4,7.2,11,12.7,9C138.2,518.7,139.7,515.6,140.8,511.7z"/>
<path class="st7" d="M119.6,453.5c0,0,8.3,13.9,10.6,17.6c2.3,3.7,10,2.6,10.9-2.6c0.9-5.1-3.2-19.3-3.2-19.3l-17.2,4.3H119.6z"/>
<path class="st11" d="M99.9,431.3c0,0-2.3,3.7-1.2,6.3c1.2,2.6,4.3,10,6.3,13.7c2,3.7,11.2,6,21.8,4.3c10.6-1.7,16.6-6.6,16.9-10.8
	c0.3-4.3-1.7-10-3.2-16.8c-1.4-6.8-5.2-6.5-10.3-6.5C125,421.4,104.2,427.3,99.9,431.3z"/>
<path class="st12" d="M130.8,347.7c0.2-7,4.2-10.4,4.5-15.2c0.5-6.3,0-12.7-1.6-18.9l-7.8-10.6c-22.5,0.3-38.7,0.7-38.9,0.8
	c-0.9,0.3-1.4,5.1-2,9.1c0,0-9.6,1.2-7.9,27.7c0.2,3.7,9.9,46.4,10.6,51.2c4.3,29.7,13.9,44.6,13.9,44.6s0.9,3.7,12,2.9
	c11.2-0.9,22.3-8.2,22.3-8.2S130.2,373,130.8,347.7z"/>
<path class="st7" d="M104.4,313.5c7.5,0.4,15,1.5,22.3,3.4c9.7,2.9,26.9,8.5,30.9,8.5s2.9-14.8,2.9-17.6c0-2.8-51.5-4.6-57.8-4.6
	C96.4,303.3,104.4,313.5,104.4,313.5z"/>
<path class="st11" d="M160.6,307.8c0,0-4.6,2.3-6.3,10.8c-1.7,8.5-4,13.1-0.6,15.4c3.4,2.3,18.3,4,20.6,1.7c2.3-2.3,8.6-13.7,9.7-21
	S160.6,307.8,160.6,307.8z"/>
<path class="st12" d="M180,310.7c-2.7,3-4.8,6.5-6.3,10.2c-1.2,3.9-2.2,7.9-2.9,12c5.5,1.5,10.8,3.4,16,5.7
	c9.2,4,24.6,6.8,39.5,10.2c14.9,3.4,18.9,6.8,24.1,6.8c5.2,0,11.5-4,19.5-13.7s1.1-30.2-6.9-36.4c-8-6.3-51-11.4-56.7-9.7
	C200.7,297.6,180,310.7,180,310.7z"/>
<path class="st13" d="M129.9,335.2c0,0-5.9,62.8-18,72.6"/>
<path class="st13" d="M125.7,394.8c0,0-4.7,20.5-17,28.6"/>
<path class="st13" d="M201.8,323.8c0,0-18.3,1.1-6.3,9.1c12,8,33.8,13.1,33.8,13.1"/>
<path class="st14" d="M334.9,306.5l-6.2-5.5l-14.3-30.7c-0.7-1.4-1.7-2.6-3.1-3.4c-1.3-0.8-2.9-1.2-4.4-1.2H29.3
	c-1.6,0-3.1,0.4-4.4,1.2c-1.3,0.8-2.4,2-3.1,3.4L3.9,308.5L1,307.4v8.8l0.1-0.1c0.2,1.2,0.8,2.2,1.7,3s2.1,1.2,3.3,1.2h324
	c1.3,0,2.5-0.4,3.4-1.3c0.9-0.8,1.5-2,1.5-3.3L334.9,306.5z"/>
<path class="st8" d="M330.1,312.2H6.1c-0.8,0-1.6-0.1-2.3-0.5c-0.7-0.4-1.3-0.9-1.8-1.6c-0.5-0.7-0.7-1.4-0.8-2.2
	c-0.1-0.8,0.1-1.6,0.4-2.3l20.2-43.4c0.7-1.4,1.7-2.6,3.1-3.4c1.3-0.8,2.9-1.2,4.4-1.2h277.6c1.6,0,3.1,0.4,4.4,1.2
	c1.3,0.8,2.4,2,3.1,3.4l20.2,43.4c0.3,0.7,0.4,1.5,0.4,2.3c-0.1,0.8-0.4,1.6-0.8,2.2c-0.5,0.7-1.1,1.2-1.8,1.6
	C331.7,312.1,330.9,312.2,330.1,312.2z"/>
<g class="st1">
	<path class="st15" d="M22.5,283c0,0-7.3,5-2.7,6.8s57.3,0.5,63.7-1.4c6.4-1.8,13.7-18.7,13.7-21.4c0-2.7-9.2-4.7-12.6-4.8
		c-3.4-0.2-48.3,2.6-48.3,2.6L22.5,283z"/>
</g>
<g class="st1">
	<path class="st15" d="M284.7,291.7c10.4,0,18.8-3.5,18.8-7.8c0-4.3-8.4-7.8-18.8-7.8c-10.4,0-18.8,3.5-18.8,7.8
		C266,288.2,274.4,291.7,284.7,291.7z"/>
</g>
<g class="st1">
	<path class="st15" d="M165.1,301.3c37.2,0,67.4-5.6,67.4-12.5c0-6.9-30.2-12.5-67.4-12.5s-67.4,5.6-67.4,12.5
		C97.7,295.7,127.9,301.3,165.1,301.3z"/>
</g>
<path class="st11" d="M271,253.5c0,0-1.2-4.9-5.3-3.3c-4.1,1.6-3.7,12.5-2.9,18.6c0.8,6.1,6.4,3.3,6.4,3.3v-3.7c0,0-2,1.6-3.1-0.6
	c-1-2.2-0.8-13.5,0.2-13.3c1,0.2,3.1,3.7,3.1,3.7S270,257.8,271,253.5z"/>
<path class="st11" d="M268,254.3v26.8c0,3.2,7.3,5.7,16.3,5.7c9,0,16.3-2.6,16.3-5.7v-26.8H268z"/>
<path class="st8" d="M300.7,254.3c0,2.7-7.3,4.9-16.3,4.9c-9,0-16.3-2.2-16.3-4.9c0-2.7,7.3-4.9,16.3-4.9
	C293.4,249.3,300.7,251.6,300.7,254.3z"/>
<path class="st8" d="M298.5,254.3c0,2.4-6.4,4.3-14.2,4.3c-7.8,0-14.2-1.9-14.2-4.3c0-2.4,6.4-4.3,14.2-4.3
	C292.2,250,298.5,251.9,298.5,254.3z"/>
<path class="st12" d="M273.4,257c7.1,2.1,14.7,2.1,21.9,0C288.2,254.9,280.6,254.9,273.4,257z"/>
<path class="st8" d="M20.4,266.5l0.2,9.2l62.3,0.6v-10.6L20.4,266.5z"/>
<path class="st8" d="M82.9,276.3l9.1-19.4v-5.7l-9.5,16.3L82.9,276.3z"/>
<path class="st8" d="M20.4,274.9l0.2,9.2l62.3,0.6v-10.6L20.4,274.9z"/>
<path class="st8" d="M82.9,284.7l9.1-19.4v-5.7l-9.5,16.3L82.9,284.7z"/>
<path class="st11" d="M44.5,243.2c0,0,1.4-2.9-0.6-4.1c-2.1-1.2-4.3,1.7-5.5,2.6c-1.2,0.9-27.1,18-28,20.6c-0.8,2.7,0,8.5,5.5,9.2
	c5.5,0.6,10.5-3.1,13-3.7c2.5-0.6,3.4-0.8,3.4-0.8l17.1-22.9L44.5,243.2z"/>
<path class="st8" d="M15.9,271.7c5.5,0.6,10.5-3.1,13-3.7c2.5-0.6,3.4-0.8,3.4-0.8l0.6-0.8l-16-3.2c-0.9-0.8-2-1.3-3.2-1.4
	s-2.4,0.2-3.4,0.8C9.6,265.1,10.4,271,15.9,271.7z"/>
<path class="st11" d="M17,263.1h48.1c15,0,19.5-0.8,19.5-0.8l9.2-19c0,0-29.2,1.8-38.2,1.2c-3.7-0.1-7.4-0.5-11.1-1.2L17,263.1z"/>
<path class="st8" d="M17,263.1l0.8,3.7c0,0,39.1,0.2,49.3,0.2c10.3,0,18.1,0.4,18.1,0.4l-0.6-5.1L17,263.1z"/>
<path class="st8" d="M85.2,267.4l8.6-19.6v-4.5l-9.2,19L85.2,267.4z"/>
<path class="st16" d="M223.9,290.3H106.2c-0.3,0-0.5,0-0.8-0.1c-0.2-0.1-0.5-0.2-0.6-0.4c-0.2-0.2-0.3-0.4-0.4-0.6
	c-0.1-0.2-0.2-0.5-0.2-0.8c0-0.3,0.1-0.5,0.2-0.8c0.1-0.2,0.2-0.5,0.4-0.6c0.2-0.2,0.4-0.3,0.6-0.4c0.2-0.1,0.5-0.1,0.8-0.1h117.8
	c0.3,0,0.5,0,0.8,0.1c0.2,0.1,0.5,0.2,0.6,0.4c0.2,0.2,0.3,0.4,0.4,0.6c0.1,0.2,0.1,0.5,0.1,0.8c0,0.3,0,0.5-0.1,0.8
	c-0.1,0.2-0.2,0.5-0.4,0.6c-0.2,0.2-0.4,0.3-0.6,0.4C224.5,290.3,224.2,290.3,223.9,290.3z"/>
<path class="st16" d="M225.1,286.3H105.3c-0.4,0-0.9-0.2-1.2-0.5c-0.3-0.3-0.5-0.7-0.5-1.1L97.1,207c0-0.2,0-0.5,0.1-0.7
	c0.1-0.2,0.2-0.4,0.4-0.6c0.2-0.2,0.4-0.3,0.6-0.4c0.2-0.1,0.5-0.1,0.7-0.1h132.8c0.2,0,0.5,0,0.7,0.1c0.2,0.1,0.4,0.2,0.6,0.4
	c0.2,0.2,0.3,0.4,0.4,0.6c0.1,0.2,0.1,0.5,0.1,0.7l-6.5,77.8c0,0.4-0.2,0.8-0.5,1.1C225.9,286.2,225.5,286.3,225.1,286.3z"/>
<path class="st17" d="M293.4,186.3c1.8-1.4,3.1-3.4,3.7-5.7c0.4-1.7,0.3-3.5-0.1-5.1"/>
<path class="st17" d="M279.7,247.2c0,0,11.4-6.8,7.7-14.6c-3.7-7.8-16.3-13-16.3-25.1c0-10.5,11.2-14.4,18.5-18.6"/>
<path class="st17" d="M290.2,247c0,0,6.4-4.2,6.4-10.9c0-4.5-4.8-7.4-11.2-14.6"/>
<path class="st17" d="M281.9,217c0,0-4.2-3.3-1.1-9.4"/>
<path class="st18" d="M177.2,241.3c5.4,1.6,8.9,4.3,8.9,7.1c0,2.8-3.5,5.4-8.9,7.1c1.3,5.4,0.7,9.8-1.7,11.1c-0.6,0.3-1.2,0.5-2,0.5
	c-2.4,0-5.5-1.7-8.7-4.6c-3.2,2.9-6.3,4.6-8.7,4.6c-0.7,0-1.4-0.2-2-0.5c-2.4-1.4-3-5.7-1.8-11.2c-5.4-1.6-8.9-4.3-8.9-7.1
	c0-2.8,3.5-5.4,8.9-7.1c-1.3-5.4-0.7-9.8,1.7-11.1c0.6-0.3,1.2-0.5,2-0.5v0c2.4,0,5.5,1.7,8.7,4.6c3.2-2.9,6.3-4.6,8.7-4.6v0
	c0.7,0,1.4,0.2,1.9,0.5C177.9,231.5,178.5,235.8,177.2,241.3z M173.5,231.5c-1.8,0-4.5,1.4-7.3,4c1.2,1.3,2.4,2.7,3.6,4.3
	c2,0.2,3.8,0.5,5.5,0.9c0.2-0.9,0.3-1.7,0.4-2.5c0.4-3.3-0.1-5.8-1.3-6.5C174.2,231.6,173.9,231.6,173.5,231.5L173.5,231.5z
	 M163.5,235.6c-2.8-2.6-5.5-4-7.3-4v0c-0.4,0-0.7,0.1-1,0.2c-1.2,0.7-1.7,3.2-1.3,6.5c0.1,0.8,0.3,1.6,0.5,2.5
	c1.7-0.4,3.6-0.7,5.5-0.9C161.1,238.3,162.3,236.8,163.5,235.6z M173.7,246c0.5-1.1,0.8-2.3,1.2-3.4c-1.1-0.3-2.3-0.5-3.6-0.7
	c0.4,0.7,0.9,1.3,1.2,2C173,244.7,173.3,245.3,173.7,246z M168.8,255c0.7-1,1.4-2.1,2.1-3.3c0.7-1.1,1.2-2.3,1.8-3.4
	c-0.5-1.1-1.1-2.3-1.8-3.4c-0.7-1.1-1.4-2.2-2.1-3.3c-1.3-0.1-2.6-0.2-3.9-0.2c-1.3,0-2.6,0.1-3.9,0.2c-0.7,1-1.4,2.1-2.1,3.3
	c-0.7,1.1-1.3,2.3-1.8,3.4c0.5,1.1,1.1,2.3,1.8,3.4c0.7,1.1,1.4,2.2,2.1,3.3c1.3,0.1,2.6,0.2,3.9,0.2
	C166.2,255.2,167.5,255.2,168.8,255z M174.9,254.1c-0.3-1.1-0.7-2.3-1.2-3.4c-0.4,0.7-0.7,1.4-1.1,2.1c-0.4,0.7-0.8,1.4-1.2,2
	C172.6,254.6,173.8,254.3,174.9,254.1z M162.5,257.1c0.8,1,1.6,1.9,2.4,2.7c0.8-0.8,1.6-1.7,2.4-2.7c-0.8,0-1.6,0.1-2.4,0.1
	C164.1,257.1,163.3,257.1,162.5,257.1z M154.9,254.1c1.1,0.3,2.3,0.5,3.6,0.7c-0.4-0.7-0.8-1.3-1.2-2c-0.4-0.7-0.8-1.4-1.1-2.1
	C155.6,251.8,155.2,253,154.9,254.1z M167.3,239.7c-0.8-1-1.6-1.9-2.4-2.7c-0.8,0.8-1.6,1.7-2.4,2.7c0.8,0,1.6-0.1,2.4-0.1
	C165.7,239.6,166.5,239.6,167.3,239.7z M157.2,244c0.4-0.7,0.8-1.4,1.2-2c-1.2,0.2-2.4,0.4-3.6,0.7c0.3,1.1,0.7,2.3,1.2,3.4
	C156.4,245.4,156.8,244.7,157.2,244z M145.5,248.4c0,1.3,2,3,5.1,4.3c0.8,0.3,1.6,0.6,2.4,0.9c0.5-1.7,1.1-3.4,1.9-5.2
	c-0.8-1.8-1.5-3.5-2-5.2c-0.8,0.3-1.7,0.5-2.4,0.9C147.5,245.3,145.5,247,145.5,248.4z M154,258.5c-0.4,3.3,0.1,5.8,1.3,6.5
	c0.3,0.1,0.6,0.2,1,0.2c1.8,0,4.5-1.4,7.3-4c-1.2-1.3-2.4-2.7-3.6-4.3c-2-0.2-3.8-0.5-5.5-0.9C154.2,256.8,154,257.6,154,258.5z
	 M174.6,264.9c1.2-0.7,1.7-3.2,1.3-6.5c-0.1-0.8-0.3-1.6-0.5-2.5c-1.7,0.4-3.6,0.7-5.5,0.9c-1.2,1.6-2.4,3-3.6,4.3
	c2.8,2.6,5.5,4,7.3,4C174,265.1,174.3,265.1,174.6,264.9z M176.8,253.6c0.8-0.3,1.7-0.5,2.4-0.9c3.1-1.3,5.1-3,5.1-4.3
	c0-1.3-2-3-5.1-4.3c-0.8-0.3-1.6-0.6-2.4-0.9c-0.5,1.7-1.1,3.4-1.9,5.2C175.6,250.1,176.3,251.9,176.8,253.6z M168.8,248.4
	c0,2.2-1.8,3.9-4,3.9s-4-1.8-4-3.9c0-2.2,1.8-3.9,4-3.9S168.8,246.2,168.8,248.4z"/>
<path class="st19" d="M144.1,76.4c0.2,0.3,0.8,0.1,0.7-0.3c-0.1-0.9-0.2-1.3-0.8-2c-0.3-0.4-0.7,0-0.7,0.4c-0.2-0.2-0.5-0.3-0.7-0.5
	c-0.2-0.1-0.5,0-0.6,0.2c-0.1,0.1-0.1,0.2,0,0.3c0.1,0.5,0.3,0.9,0.4,1.3c-0.4-0.5-0.7-1-1.1-1.6c-0.3-0.5-0.9-0.1-0.7,0.5
	c0.3,0.7,0.6,1.4,0.8,2.1c-0.5-0.9-0.9-1.6-1.8-2c-0.4-0.2-0.8,0.2-0.6,0.6l1.4,3l-2.6-4.2c-0.3-0.5-0.9-0.1-0.7,0.4
	c1.1,2.5,2.2,5,3.2,7.5l-4.6-7.4c-0.3-0.5-0.9-0.1-0.7,0.4c1.2,2.5,2.4,5.1,3.5,7.6l-4-6.1c-0.3-0.4-0.9-0.1-0.7,0.4
	c1.4,2.9,2.9,5.9,4.3,8.8c-1.2-1.6-2.3-3.1-3.5-4.7c-0.3-0.4-0.8,0.1-0.6,0.5c0.9,1.7,1.8,3.5,2.7,5.2c-0.7-0.8-1.3-1.6-2-2.4
	c-0.3-0.3-0.8,0-0.7,0.4c0.3,1,0.8,2,1.4,2.9c0.1,0.1,0.3,0.2,0.4,0.1c0.1-0.1,0.1-0.2,0.1-0.4c-0.1-0.3-0.3-0.5-0.4-0.8
	c1,1.1,1.9,2.3,2.9,3.4c0.3,0.3,0.8-0.1,0.6-0.5c-0.7-1.4-1.4-2.7-2.1-4.1c1,1.3,2,2.7,3,4c0.3,0.4,0.7-0.1,0.6-0.5
	c-1.1-2.2-2.1-4.4-3.2-6.6c1.2,1.8,2.3,3.6,3.5,5.4c0.3,0.4,0.9,0.1,0.7-0.4c-1-2.2-2-4.3-3-6.5c1.3,2.1,2.6,4.2,3.8,6.2
	c0.3,0.5,0.9,0.1,0.7-0.4l-3.3-7.7c1.1,1.7,2.2,3.5,3.3,5.3c0.3,0.5,0.9,0.1,0.7-0.4c-0.8-1.8-1.7-3.6-2.5-5.4
	c0.1,0.1,0.2,0.3,0.2,0.4l1.9,3.1c0.3,0.5,0.9,0.1,0.7-0.5l-1.6-3.9c0.4,0.5,0.8,1,1.2,1.5c0.3,0.4,0.9-0.1,0.7-0.5
	c-0.5-1-1-2-1.4-3.1C143.5,75.8,143.8,76.1,144.1,76.4"/>
<path class="st20" d="M139.3,66.7c-4.5,6.6-10.6,14.6-10,16.8c0.7,2.5,1.6,6.1,1.4,8.6c-0.2,2.5-3.3,10-0.1,17.5
	c0.5,1.3,1,2.6,1.3,3.9c1.8,6.7,2,14,7.9,15.1c14.6,2.8,38.4-9.9,46.2-20.1l4.4-35.7C181.6,60.4,152.1,56.4,139.3,66.7"/>
<path class="st21" d="M139.3,66.7c-0.8,1.1-1.6,2.3-2.4,3.5c2.6,0.5,14.8-3.6,26.6-2.3c11.8,1.3,19.5,3.5,22.5,6.7
	c1.7,1.8,2.8,4.3,3.5,5.9l0.4-3.2c-0.3-2-0.6-4.4-1-6.3C178.6,60,151.5,56.9,139.3,66.7"/>
<path class="st21" d="M130,86c0.5,2.1,0.9,4.4,0.8,6.1c-0.1,1.4-1.1,4.3-1.4,8c1.5,0.1,3.8-1,5.8-3.8c2.1-2.8,4-8.3,4.4-8.4
	s3.4-0.6,5.4,0.3c1.9,0.9,4.1,6.3,4.1,6.3s-1,4.6,0.9,7.4s11.7,1.9,14.7-0.6c3-2.5,5.1-8.5,5.1-8.5l11.1,1.1l1.4-2.9L130,86z"/>
<path class="st21" d="M134.2,122.5c1,3.1,2.5,5.5,5.7,6.1c14.6,2.8,38.4-9.9,46.2-20.1l0.2-1.8l-4.9,0.1c0.1,0-6.8,7.8-15.4,12.4
	c-8.6,4.6-15.7,7.1-17.6,7.2c-1.9,0.1-1.7-1.3-4.3-1.8c-2.6-0.5-6.1,0-7.7-0.2C135.7,124.3,134.9,123.4,134.2,122.5"/>
<path class="st22" d="M195.3,92.8L195.3,92.8c2.7-9.5,2.9-18,1.8-21.5c-0.3-0.8-2.9-3-5.3-3c-4.2-12.1-37.3-10.4-45.2-33
	c-12.6,9.3-13.5,30.8-7,32.4c0.6,0,1,0,1,0s23.3-4.1,33.9-0.1c10.6,4,13.8,5.7,14,8.4c0.2,3.1-8.4,19.3-11,24.5l3.1,1.9
	c0,0,3.9-8.8,7.4-10.2C190.2,91.3,193.3,92.1,195.3,92.8"/>
<path class="st23" d="M146.6,35.2c-12.6,9.3-13.5,30.8-7,32.4c0.6,0,1,0,1,0s23.3-4.1,33.9-0.1c10.6,4,13.8,5.7,14,8.4
	c0.2,3.1-8.4,19.3-11,24.5l0.2,0.1c0.7-1.8,2.6-5.9,5.3-9.7c3.8-5.3,9.1-10.6,8.4-15.3c-0.7-4.7-4.9-5.8-12.9-8.9
	c-8-3.2-12.9-2.6-16.9-5.3c-4.1-2.7-5.6-5.1-5.8-6.8c-0.2-1.7-1.1,2.3-1.2,3.6c-0.1,1.2,0.2,6.1,0.2,6.1s-2.6-0.8-4.3-3
	c-1.7-2.2-1.1-8.3-1-8.8c0.1-0.6-0.7,0.8-1.8,2.7c-1.1,1.9-1.3,7.8-0.9,8.6s-5.7-5.9-4.7-13.3S146.6,35.2,146.6,35.2"/>
<path class="st24" d="M141.1,84.4l-15.9-1.1c-2.2,2.6-3.2,17,5.4,15.4c4.6-0.9,8.7-9.5,10.3-10s2-0.7,3,0.1
	c2.5,1.9-0.1,15.2,14.5,13.7c6.9-0.7,10.2-9.7,11.2-10.4c1-0.7,16.1,1.7,16.1,1.7l2.3-2.1L170.8,89c0,0,0-1-1.3-1.5
	c-1.3-0.5-21.1-2.4-22.3-2.4c-1.1,0-2.5,0.4-3.4,0.5c-1,0-1.4-0.3-1.6-0.5C142,84.7,141.3,84.4,141.1,84.4"/>
<path class="st25" d="M133.5,108.1c5.4,2.7,13.9,3.2,19.8,2.3c11.7-1.7,16.2-4.8,16.2-4.8s-1.1,7.3-9.1,11.7
	c-8.1,4.4-16.3,3.7-20,2.9c-1.2-0.3-2.4-0.7-3.6-1.2c-1.1-0.5-1.6-1-1.6-1s1.9-1.9,1.8-4.5S133.5,108.1,133.5,108.1"/>
<path class="st26" d="M136.6,109.3c5.2,1.6,11.9,1.8,16.8,1.1c6.5-1,10.8-2.3,13.3-3.4c-0.3,1.1-0.7,2.6-1.1,3
	c-2.9,2.7-24,3.8-28.6,1.7C136.6,111.5,136.6,110.3,136.6,109.3"/>
<path class="st20" d="M182.7,95.4c0.1-0.3,3.2-3.2,6.2-4.2c3-1,5.7-1.3,8.1,1.1c4.3,4.4-4.4,15.7-11,16.4c-2.5,0.3-5.5-1.5-6.1-2.7
	C179.4,104.8,182.7,95.4,182.7,95.4"/>
<path class="st23" d="M185.5,96.5c0.4-0.4,3.8-3.3,6-2.8s3,2.1,2.5,4.2c-0.5,2.1-4.7,6.6-6.2,7c-1.5,0.4-3.8-0.5-4.2-2
	c-0.4-1.5,0.9-0.9,1.7-2.2s0.6-1.8-0.1-2.5C184.6,97.3,185.5,96.5,185.5,96.5"/>
<path class="st27" d="M189.2,94c0.8-0.3,1.6-0.5,2.3-0.4c2.2,0.5,3,2.1,2.5,4.2c-0.5,2-4.4,6.2-6,6.9c0.8-0.9,1.8-2.1,2.6-3.3
	c1.8-2.8,2-4.7,1.1-6.3C191.3,94.5,190.3,94.1,189.2,94"/>
<path class="st22" d="M140.6,104.1c0-0.4-1.9-0.8-3.3-1.1c-1.3-0.3-2.7-0.4-4-0.5l5.9-11.3c-0.3,0.4-7.1,11.3-7.1,11.3c0,0,0,0,0,0
	c0.2,0.3,1.6,1.5,2.6,1.8C135.6,104.6,140.6,104.1,140.6,104.1"/>
<path class="st21" d="M170.8,104.2c0.8,4.1-1.5,7.7-1.3,7.6C173,110.5,175.3,103.5,170.8,104.2"/>
<path class="st26" d="M136,117.6c0.2,0.1,0.3,0.2,0.5,0.3c1.1,0.5,2.4,1,3.6,1.2c3.7,0.9,12,1.5,20-2.9c0.3-0.2,0.5-0.3,0.8-0.5
	c-14,1.1-15.8,0.7-25.1-0.8C135.8,114.9,136,117.4,136,117.6"/>
<path class="st28" d="M162.7,89.4c0.2,0,3.8,0.6,3.8,0.4c0-0.2,0.6,1.1-1,3.3c-1.5,2.2-4.7,2.9-4.7,2.9
	C161.6,95.2,163.2,91.3,162.7,89.4"/>
<path class="st28" d="M134.3,86.6c0.1,0,2.8,0.6,2.8,0.4c0-0.2,0.4,1.1-0.7,3.3c-1.1,2.2-3.5,2.9-3.5,2.9
	C133.5,92.3,134.7,88.4,134.3,86.6"/>
</svg>
