<?xml version="1.0" encoding="utf-8"?>
<!-- Generator: Adobe Illustrator 26.1.0, SVG Export Plug-In . SVG Version: 6.00 Build 0)  -->
<svg version="1.1" id="Layer_1" xmlns="http://www.w3.org/2000/svg" xmlns:xlink="http://www.w3.org/1999/xlink" x="0px" y="0px"
	 viewBox="0 0 110 31" style="enable-background:new 0 0 110 31;" xml:space="preserve">
<style type="text/css">
	.st0{fill:#E1E1E6;}
	.st1{font-family:'RobotoMono-Regular';}
	.st2{font-size:22.0711px;}
</style>
<path class="st0" d="M27.8,21.8c0-0.7,0.2-1.3,0.7-1.8c0.5-0.4,1.1-0.7,1.8-0.7c0.7,0,1.3,0.2,1.8,0.7c0.5,0.4,0.7,1,0.7,1.8
	c0,0.7-0.2,1.3-0.7,1.7c-0.5,0.4-1.1,0.7-1.8,0.7c-0.7,0-1.3-0.2-1.8-0.7C28,23.1,27.8,22.5,27.8,21.8z"/>
<path class="st0" d="M41,7.1l0.1,2C42.3,7.5,44,6.8,46,6.8c1.8,0,3.1,0.5,4,1.6c0.9,1.1,1.3,2.6,1.3,4.7V24h-4.5V13.2
	c0-1-0.2-1.7-0.6-2.1c-0.4-0.4-1.1-0.7-2.1-0.7c-1.3,0-2.2,0.5-2.9,1.6V24h-4.5V7.1H41z"/>
<path class="st0" d="M62.5,24.3c-2.5,0-4.5-0.8-6.1-2.3c-1.6-1.5-2.3-3.5-2.3-6.1v-0.4c0-1.7,0.3-3.2,1-4.5c0.7-1.3,1.6-2.4,2.8-3.1
	c1.2-0.7,2.6-1.1,4.1-1.1c2.3,0,4.1,0.7,5.5,2.2c1.3,1.5,2,3.5,2,6.2V17H58.7c0.1,1.1,0.6,2,1.3,2.7c0.7,0.7,1.7,1,2.8,1
	c1.7,0,3.1-0.6,4.1-1.9l2.2,2.5c-0.7,1-1.6,1.7-2.8,2.2C65.2,24,64,24.3,62.5,24.3z M62,10.4c-0.9,0-1.6,0.3-2.2,0.9
	c-0.6,0.6-0.9,1.5-1.1,2.6h6.3v-0.4c0-1-0.3-1.8-0.8-2.3C63.7,10.7,63,10.4,62,10.4z"/>
<path class="st0" d="M86.8,17.9L89,7.1h4.4L89,24h-3.8l-3.2-10.6L78.9,24h-3.8L70.8,7.1h4.4l2.2,10.8l3.1-10.8h3.3L86.8,17.9z"/>
<path class="st0" d="M104.8,19.3c0-0.6-0.3-1-0.8-1.3c-0.5-0.3-1.4-0.6-2.6-0.9c-4-0.8-6-2.6-6-5.1c0-1.5,0.6-2.8,1.9-3.8
	c1.2-1,2.9-1.5,4.9-1.5c2.1,0,3.9,0.5,5.1,1.5c1.3,1,1.9,2.3,1.9,3.9h-4.5c0-0.6-0.2-1.2-0.6-1.6c-0.4-0.4-1.1-0.6-2-0.6
	c-0.8,0-1.3,0.2-1.8,0.5c-0.4,0.3-0.6,0.8-0.6,1.3c0,0.5,0.2,0.9,0.7,1.2c0.5,0.3,1.3,0.6,2.4,0.8c1.1,0.2,2.1,0.5,2.8,0.8
	c2.4,0.9,3.6,2.4,3.6,4.5c0,1.5-0.7,2.8-2,3.8c-1.3,0.9-3,1.4-5.1,1.4c-1.4,0-2.7-0.2-3.8-0.8c-1.1-0.5-2-1.2-2.6-2.1
	c-0.6-0.9-0.9-1.8-0.9-2.9H99c0,0.8,0.3,1.4,0.9,1.8c0.6,0.4,1.3,0.6,2.2,0.6c0.9,0,1.5-0.2,2-0.5C104.5,20.3,104.8,19.9,104.8,19.3
	z"/>
<text transform="matrix(1.1043 0 0 1 0 24)" class="st0 st1 st2">dc</text>
</svg>
